<svg width="156" height="32" viewBox="0 0 156 32" fill="none" xmlns="http://www.w3.org/2000/svg">
<path d="M77.2031 4.71094H79.2902V17.6043C81.8162 15.3856 84.3302 13.1868 86.8402 11.008H89.885C86.92 13.5859 83.9471 16.1757 80.9662 18.7735L81.5328 19.2843L90.3958 27.3212H87.4428C84.7372 24.8431 82.0237 22.3929 79.2981 19.9747V27.3212H77.2111V4.71493L77.2031 4.71094Z" fill="white"/>
<path d="M93.1369 4.28822C93.5559 4.24831 93.963 4.38 94.362 4.67929C94.7411 4.99853 94.9566 5.3896 95.0165 5.84851C95.0564 6.28746 94.9167 6.70647 94.5975 7.10951C94.2982 7.48861 93.9231 7.70011 93.4642 7.74002C93.0452 7.79987 92.6301 7.67218 92.2111 7.34895C91.852 7.04966 91.6445 6.67056 91.5846 6.20766C91.5248 5.8086 91.6525 5.3896 91.9717 4.94665C92.251 4.5875 92.6381 4.36803 93.1369 4.28822ZM92.271 11.0043H94.3301V27.3135H92.271V11.0043Z" fill="white"/>
<path d="M100.507 11.0029V4.94531H102.595V11.0029H105.907V12.8026H102.595V27.3162H100.507V12.8026H97.1953V11.0029H100.507Z" fill="white"/>
<path d="M139.976 25.2792C139.122 25.5985 138.304 25.778 137.53 25.8179H136.816C136.257 25.778 135.702 25.6862 135.143 25.5466C134.21 25.2872 133.392 24.8682 132.697 24.2856C131.225 23.0246 130.411 21.4164 130.251 19.457V18.7986C130.291 18.2798 130.379 17.7611 130.518 17.2383C130.758 16.4003 131.225 15.5782 131.919 14.7801C132.633 14.0219 133.44 13.4513 134.337 13.0722C135.132 12.753 135.95 12.5814 136.784 12.5614H137.53C138.583 12.6013 139.557 12.8408 140.455 13.2797C141.429 13.7386 142.275 14.4489 142.993 15.4067H145.287C145.1 15.0515 144.904 14.7243 144.701 14.417C144.014 13.3835 143.252 12.6332 142.514 12.1065C140.962 11.1687 139.33 10.6579 137.622 10.5781H136.636C135.104 10.6779 133.683 11.1089 132.37 11.8671C131.416 12.4058 130.598 13.1161 129.924 13.994C128.811 15.5144 128.224 17.1545 128.164 18.9103V19.6606C128.224 20.7021 128.411 21.5999 128.731 22.3581C129.05 23.2161 129.557 24.0382 130.251 24.8163C131.165 25.794 132.083 26.4764 132.997 26.8555C134.21 27.3942 135.423 27.6855 136.636 27.7254H137.502C139.254 27.6456 140.822 27.1867 142.215 26.3447C143.109 25.8459 143.919 25.0597 144.661 24.0062C145.012 23.5074 145.287 22.9248 145.287 22.9248H142.993C142.119 24.0461 141.113 24.8243 139.98 25.2632L139.976 25.2792Z" fill="white"/>
<path d="M64.8941 26.3683C65.8997 27.2781 67.2605 27.737 68.9405 27.737C70.6205 27.737 72.0092 27.3021 73.0507 26.4401C74.0922 25.5782 74.599 24.5526 74.599 23.3036C74.599 22.0545 74.2998 21.0888 73.7052 20.4224C73.1026 19.748 72.3644 19.2771 71.5104 19.0337C70.6165 18.7783 69.7107 18.5469 68.8128 18.3513C67.883 18.1478 67.0729 17.8166 66.4145 17.3657C65.7082 16.8828 65.349 16.1885 65.349 15.3026C65.349 14.4167 65.6603 13.7064 66.2748 13.1517C66.8814 12.601 67.7154 12.3256 68.7529 12.3256C69.7905 12.3256 70.6325 12.6449 71.231 13.2754C71.7777 13.85 72.093 14.5962 72.1688 15.5021H74.3516C74.2199 14.0216 73.7052 12.8324 72.8193 11.9705C71.8815 11.0567 70.5606 10.5938 68.8966 10.5938C67.2325 10.5938 65.8518 11.0686 64.8063 12.0104C63.7568 12.9561 63.25 14.0775 63.25 15.4502C63.25 16.368 63.4655 17.1342 63.8885 17.7288C64.3155 18.3274 64.8502 18.7544 65.4847 18.9938C66.1591 19.2492 66.9053 19.4926 67.7074 19.7201C68.5055 19.9435 69.2557 20.1431 69.9381 20.3107C70.6644 20.4863 71.2789 20.8095 71.7658 21.2764C72.2726 21.7592 72.528 22.4137 72.528 23.2198C72.528 24.0259 72.2047 24.7122 71.5662 25.239C70.9437 25.7498 70.0818 26.0131 69.0083 26.0131C67.9349 26.0131 67.061 25.7019 66.4344 25.0833C65.8598 24.5167 65.5286 23.7744 65.4448 22.8646H63.266C63.4016 24.3411 63.9483 25.5223 64.8901 26.3763L64.8941 26.3683Z" fill="white"/>
<path d="M59.9543 27.3172H62.3406L51.7976 4.71094L41.2188 27.3172H43.637L46.3625 21.507H57.2367L59.9543 27.3172ZM47.3881 19.3163L51.8096 9.89462L56.2151 19.3163H47.3881Z" fill="white"/>
<path d="M121.65 23.4193C121.231 23.958 120.844 24.3371 120.485 24.5606C119.352 25.3188 118.127 25.7418 116.814 25.8216H116.187C114.974 25.7617 113.841 25.3307 112.787 24.5326C111.953 23.8343 111.335 23.0123 110.94 22.0745C110.561 21.1168 110.381 20.195 110.401 19.317H124.958C124.958 17.3577 124.459 15.6298 123.466 14.1294C122.652 13.032 121.806 12.2299 120.928 11.7311C120.114 11.2522 119.296 10.9329 118.482 10.7733C118.063 10.6935 117.656 10.6337 117.257 10.5938H115.916C115.497 10.6337 115.09 10.6935 114.695 10.7733C113.877 10.9329 113.063 11.2642 112.249 11.763C111.454 12.2219 110.688 12.9442 109.95 13.9218C108.896 15.3824 108.33 17.0185 108.25 18.8382V19.5884C108.27 20.0273 108.33 20.5461 108.43 21.1487C108.649 22.0306 108.976 22.8486 109.415 23.6068C110.509 25.5263 111.981 26.7673 113.833 27.326C114.547 27.5455 115.365 27.6852 116.279 27.745H117.113C118.506 27.6852 119.759 27.346 120.872 26.7274C121.846 26.2087 122.7 25.4465 123.438 24.4488C123.817 23.95 124.144 23.4113 124.424 22.8287C124.703 22.274 124.791 21.8989 124.791 21.8989H122.692C122.333 22.5174 121.985 23.0282 121.646 23.4273L121.65 23.4193ZM111.654 15.115C112.233 14.277 112.995 13.6266 113.952 13.1676C114.786 12.8085 115.565 12.6169 116.279 12.597H116.905C118.139 12.6768 119.252 13.0479 120.246 13.7064C120.684 13.9657 121.072 14.3169 121.411 14.7559C122.025 15.534 122.456 16.4558 122.692 17.5133H110.58C110.84 16.6554 111.195 15.8533 111.654 15.115Z" fill="white"/>
<path d="M150.5 11.0029V4.94531H152.587V11.0029H155.899V12.8026H152.587V27.3162H150.5V12.8026H147.188V11.0029H150.5Z" fill="white"/>
<path d="M24.001 8.92605C19.0408 12.0187 16 17.4498 16 23.3239V32.0032C25.9005 26.2888 32.002 15.7219 32.002 4.28906L24.001 8.92605Z" fill="url(#paint0_linear_477_3293)"/>
<path d="M7.51415 8.61895L0 4.28125C0 15.7141 6.09752 26.277 15.998 31.9954V23.316C15.998 17.2544 12.7657 11.6517 7.51415 8.61895Z" fill="white"/>
<path d="M24.4937 8.61953C24.3261 8.7153 24.1704 8.82305 24.0068 8.92281L32.0078 4.28582C22.1073 -1.42861 9.9083 -1.42861 0.0078125 4.28582L7.52197 8.62352C12.7735 11.6563 19.2421 11.6523 24.4937 8.62352V8.61953Z" fill="white"/>
<defs>
<linearGradient id="paint0_linear_477_3293" x1="30.6133" y1="16.4881" x2="16.8979" y2="19.9199" gradientUnits="userSpaceOnUse">
<stop stop-color="white"/>
<stop offset="1" stop-color="#C4C5C5"/>
</linearGradient>
</defs>
</svg>
